<?xml version="1.0" encoding="UTF-8" standalone="no"?><!DOCTYPE svg PUBLIC "-//W3C//DTD SVG 1.1//EN" "http://www.w3.org/Graphics/SVG/1.1/DTD/svg11.dtd"><svg width="100%" height="100%" viewBox="0 0 9 9" version="1.1" xmlns="http://www.w3.org/2000/svg" xmlns:xlink="http://www.w3.org/1999/xlink" xml:space="preserve" xmlns:serif="http://www.serif.com/" style="fill-rule:evenodd;clip-rule:evenodd;stroke-linejoin:round;stroke-miterlimit:2;"><g><path d="M1.675,8.032l-1.561,-1.113l3.382,-6.838c0,0 0,0 0,0l1.041,0c0,0 0,0 0,0l3.382,6.838l-1.691,1.113l-1.691,0l0,-2.385l-1.041,0l0,2.385l-1.821,0Z" style="fill:#00af9d;"/><g><path d="M4.537,0.081l0,7.951l1.691,0l-1.691,-7.951Z" style="fill:#45ffec;"/><clipPath id="_clip1"><path d="M4.537,0.081l0,7.951l1.691,0l-1.691,-7.951Z"/></clipPath><g clip-path="url(#_clip1)"><g transform="matrix(0.413923,-0.135751,0.312418,0.355983,-68.4569,-46.2716)"><text x="40px" y="157.73px" style="font-family:'ArialMT', 'Arial', sans-serif;font-size:8px;fill:#fff;fill-opacity:0.26;">0<tspan x="45.552px 51.103px 56.655px " y="157.73px 157.73px 157.73px ">101</tspan></text><text x="40px" y="165.992px" style="font-family:'ArialMT', 'Arial', sans-serif;font-size:8px;fill:#fff;fill-opacity:0.26;">0<tspan x="45.552px 51.103px 56.655px " y="165.992px 165.992px 165.992px ">000</tspan></text><text x="40px" y="174.254px" style="font-family:'ArialMT', 'Arial', sans-serif;font-size:8px;fill:#fff;fill-opacity:0.26;">1<tspan x="45.552px 51.103px 56.655px " y="174.254px 174.254px 174.254px ">010</tspan></text><text x="40px" y="182.516px" style="font-family:'ArialMT', 'Arial', sans-serif;font-size:8px;fill:#fff;fill-opacity:0.26;">1<tspan x="45.552px 51.103px 56.655px " y="182.516px 182.516px 182.516px ">010</tspan></text><text x="40px" y="190.777px" style="font-family:'ArialMT', 'Arial', sans-serif;font-size:8px;fill:#fff;fill-opacity:0.26;">0<tspan x="45.75px 50.905px 56.655px " y="190.777px 190.777px 190.777px ">110</tspan></text></g></g><path d="M3.496,0.081l-1.821,7.951l1.821,0l0,-7.951Z" style="fill:#45ffec;"/><clipPath id="_clip2"><path d="M3.496,0.081l-1.821,7.951l1.821,0l0,-7.951Z"/></clipPath><g clip-path="url(#_clip2)"><g transform="matrix(0.413923,-0.135751,0.312418,0.355983,-68.4569,-46.2716)"><text x="40px" y="157.73px" style="font-family:'ArialMT', 'Arial', sans-serif;font-size:8px;fill:#fff;fill-opacity:0.26;">0<tspan x="45.552px 51.103px 56.655px " y="157.73px 157.73px 157.73px ">101</tspan></text><text x="40px" y="165.992px" style="font-family:'ArialMT', 'Arial', sans-serif;font-size:8px;fill:#fff;fill-opacity:0.26;">0<tspan x="45.552px 51.103px 56.655px " y="165.992px 165.992px 165.992px ">000</tspan></text><text x="40px" y="174.254px" style="font-family:'ArialMT', 'Arial', sans-serif;font-size:8px;fill:#fff;fill-opacity:0.26;">1<tspan x="45.552px 51.103px 56.655px " y="174.254px 174.254px 174.254px ">010</tspan></text><text x="40px" y="182.516px" style="font-family:'ArialMT', 'Arial', sans-serif;font-size:8px;fill:#fff;fill-opacity:0.26;">1<tspan x="45.552px 51.103px 56.655px " y="182.516px 182.516px 182.516px ">010</tspan></text><text x="40px" y="190.777px" style="font-family:'ArialMT', 'Arial', sans-serif;font-size:8px;fill:#fff;fill-opacity:0.26;">0<tspan x="45.75px 50.905px 56.655px " y="190.777px 190.777px 190.777px ">110</tspan></text></g></g></g><path d="M4.537,0.081l3.382,6.838l-1.691,1.113l-1.691,-7.951Z" style="fill:#00d9c3;"/><path d="M3.496,0.081l-3.382,6.838l1.561,1.113l1.821,-7.951Z" style="fill:#00d9c3;"/></g></svg>